# Blender 4.1.1
# www.blender.org
mtllib primary_orb.mtl
o ColorSwitcher
v 0.103782 3.524476 0.189761
v 0.017637 3.524476 0.145868
v -0.050727 3.524476 0.077504
v -0.094620 3.524476 -0.008641
v -0.109744 3.524476 -0.104132
v -0.094620 3.524476 -0.199624
v -0.050727 3.524476 -0.285768
v 0.017637 3.524476 -0.354132
v 0.103782 3.524476 -0.398025
v 0.199273 3.524476 -0.413149
v 0.294765 3.524476 -0.398025
v 0.380909 3.524476 -0.354132
v 0.449273 3.524476 -0.285768
v 0.493166 3.524476 -0.199624
v 0.508290 3.524476 -0.104132
v 0.493166 3.524476 -0.008641
v 0.449273 3.524476 0.077503
v 0.380909 3.524476 0.145868
v 0.294765 3.524476 0.189761
v 0.199273 3.524476 0.204885
v -0.050727 3.161205 0.665289
v -0.276255 3.161205 0.550377
v -0.455236 3.161205 0.371395
v -0.570148 3.161205 0.145868
v -0.609744 3.161205 -0.104132
v -0.570148 3.161205 -0.354132
v -0.455236 3.161205 -0.579661
v -0.276255 3.161205 -0.758641
v -0.050727 3.161205 -0.873553
v 0.199273 3.161205 -0.913149
v 0.449273 3.161205 -0.873553
v 0.674802 3.161205 -0.758641
v 0.853782 3.161205 -0.579660
v 0.968694 3.161205 -0.354132
v 1.008290 3.161205 -0.104132
v 0.968694 3.161205 0.145868
v 0.853782 3.161205 0.371395
v 0.674801 3.161205 0.550376
v 0.449273 3.161205 0.665289
v 0.199273 3.161205 0.704885
v -0.109744 2.573420 0.846925
v -0.388512 2.573420 0.704885
v -0.609744 2.573420 0.483654
v -0.751784 2.573420 0.204885
v -0.800727 2.573420 -0.104132
v -0.751784 2.573420 -0.413149
v -0.609744 2.573420 -0.691918
v -0.388512 2.573420 -0.913149
v -0.109744 2.573420 -1.055189
v 0.199273 2.573420 -1.104133
v 0.508290 2.573420 -1.055189
v 0.787059 2.573420 -0.913149
v 1.008290 2.573420 -0.691917
v 1.150330 2.573420 -0.413149
v 1.199273 2.573420 -0.104132
v 1.150330 2.573420 0.204885
v 1.008290 2.573420 0.483652
v 0.787058 2.573420 0.704885
v 0.508290 2.573420 0.846923
v 0.199273 2.573420 0.895868
v -0.050727 1.985635 0.665288
v -0.276255 1.985635 0.550376
v -0.455236 1.985635 0.371395
v -0.570148 1.985635 0.145867
v -0.609744 1.985635 -0.104133
v -0.570148 1.985635 -0.354133
v -0.455236 1.985635 -0.579661
v -0.276255 1.985635 -0.758642
v -0.050727 1.985635 -0.873554
v 0.199273 1.985635 -0.913150
v 0.449273 1.985635 -0.873554
v 0.674802 1.985635 -0.758642
v 0.853782 1.985635 -0.579661
v 0.968694 1.985635 -0.354133
v 1.008290 1.985635 -0.104133
v 0.968694 1.985635 0.145867
v 0.853782 1.985635 0.371395
v 0.674801 1.985635 0.550375
v 0.449273 1.985635 0.665288
v 0.199273 1.985635 0.704884
v 0.199273 3.573420 -0.104132
v 0.199273 1.573420 -0.104133
v 0.462700 2.475872 -0.331454
v 0.181375 2.689793 -0.327815
v 0.204192 2.791059 -0.052967
v 0.377621 2.713706 0.071259
v 0.535049 2.565334 0.002735
v 0.288370 2.131100 -0.142713
v 0.447595 2.332403 -0.385702
v 0.286529 2.432049 -0.510689
v 0.062557 2.406871 -0.484302
v -0.027141 2.228882 -0.268453
v 0.491932 2.268080 0.219097
v 0.625550 2.291986 0.037249
v 0.567598 2.120682 -0.194297
v 0.393338 1.976640 -0.174834
v 0.259720 1.952733 0.007013
vn -0.1690 0.8372 0.5202
vn -0.3215 0.8372 0.4425
vn -0.5058 0.5095 0.6961
vn -0.2659 0.5095 0.8184
vn -0.4425 0.8372 0.3215
vn -0.6961 0.5095 0.5058
vn -0.5202 0.8372 0.1690
vn -0.8184 0.5095 0.2659
vn -0.5469 0.8372 -0.0000
vn -0.8605 0.5095 -0.0000
vn -0.5202 0.8372 -0.1690
vn -0.8184 0.5095 -0.2659
vn -0.4425 0.8372 -0.3215
vn -0.6961 0.5095 -0.5058
vn -0.3215 0.8372 -0.4425
vn -0.5058 0.5095 -0.6961
vn -0.1690 0.8372 -0.5202
vn -0.2659 0.5095 -0.8184
vn -0.0000 0.8372 -0.5469
vn -0.0000 0.5095 -0.8605
vn 0.1690 0.8372 -0.5202
vn 0.2659 0.5095 -0.8184
vn 0.3215 0.8372 -0.4425
vn 0.5058 0.5095 -0.6961
vn 0.4425 0.8372 -0.3215
vn 0.6961 0.5095 -0.5058
vn 0.5202 0.8372 -0.1690
vn 0.8184 0.5095 -0.2659
vn 0.5469 0.8372 -0.0000
vn 0.8605 0.5095 -0.0000
vn 0.5202 0.8372 0.1690
vn 0.8184 0.5095 0.2659
vn 0.4425 0.8372 0.3215
vn 0.6961 0.5095 0.5058
vn 0.3215 0.8372 0.4425
vn 0.5058 0.5095 0.6961
vn 0.1690 0.8372 0.5202
vn 0.2659 0.5095 0.8184
vn -0.0000 0.8372 0.5469
vn -0.0000 0.5095 0.8605
vn -0.5878 -0.0000 0.8090
vn -0.3090 -0.0000 0.9511
vn -0.8090 -0.0000 0.5878
vn -0.9511 -0.0000 0.3090
vn -1.0000 -0.0000 -0.0000
vn -0.9511 -0.0000 -0.3090
vn -0.8090 -0.0000 -0.5878
vn -0.5878 -0.0000 -0.8090
vn -0.3090 -0.0000 -0.9511
vn -0.0000 -0.0000 -1.0000
vn 0.3090 -0.0000 -0.9511
vn 0.5878 -0.0000 -0.8090
vn 0.8090 -0.0000 -0.5878
vn 0.9511 -0.0000 -0.3090
vn 1.0000 -0.0000 -0.0000
vn 0.9511 -0.0000 0.3090
vn 0.8090 -0.0000 0.5878
vn 0.5878 -0.0000 0.8090
vn 0.3090 -0.0000 0.9511
vn -0.0000 -0.0000 1.0000
vn -0.4860 -0.5625 0.6689
vn -0.2555 -0.5625 0.7863
vn -0.6689 -0.5625 0.4860
vn -0.7863 -0.5625 0.2555
vn -0.8268 -0.5625 -0.0000
vn -0.7863 -0.5625 -0.2555
vn -0.6689 -0.5625 -0.4860
vn -0.4860 -0.5625 -0.6689
vn -0.2555 -0.5625 -0.7863
vn -0.0000 -0.5625 -0.8268
vn 0.2555 -0.5625 -0.7863
vn 0.4860 -0.5625 -0.6689
vn 0.6689 -0.5625 -0.4860
vn 0.7863 -0.5625 -0.2555
vn 0.8268 -0.5625 -0.0000
vn 0.7863 -0.5625 0.2555
vn 0.6689 -0.5625 0.4860
vn 0.4860 -0.5625 0.6689
vn 0.2555 -0.5625 0.7863
vn -0.0000 -0.5625 0.8268
vn -0.0000 1.0000 -0.0000
vn -0.0000 -1.0000 -0.0000
vn 0.5697 0.7547 -0.3254
vn -0.0124 0.7740 0.6331
vn -0.6176 0.6982 -0.3620
vt 0.000000 0.100000
vt 0.050000 0.100000
vt 0.050000 0.300000
vt 0.000000 0.300000
vt 0.100000 0.100000
vt 0.100000 0.300000
vt 0.150000 0.100000
vt 0.150000 0.300000
vt 0.200000 0.100000
vt 0.200000 0.300000
vt 0.250000 0.100000
vt 0.250000 0.300000
vt 0.300000 0.100000
vt 0.300000 0.300000
vt 0.350000 0.100000
vt 0.350000 0.300000
vt 0.400000 0.100000
vt 0.400000 0.300000
vt 0.450000 0.100000
vt 0.450000 0.300000
vt 0.500000 0.100000
vt 0.500000 0.300000
vt 0.550000 0.100000
vt 0.550000 0.300000
vt 0.600000 0.100000
vt 0.600000 0.300000
vt 0.650000 0.100000
vt 0.650000 0.300000
vt 0.700000 0.100000
vt 0.700000 0.300000
vt 0.750000 0.100000
vt 0.750000 0.300000
vt 0.800000 0.100000
vt 0.800000 0.300000
vt 0.850000 0.100000
vt 0.850000 0.300000
vt 0.900000 0.100000
vt 0.900000 0.300000
vt 0.950000 0.100000
vt 0.950000 0.300000
vt 1.000000 0.100000
vt 1.000000 0.300000
vt 0.050000 0.500000
vt 0.000000 0.500000
vt 0.100000 0.500000
vt 0.150000 0.500000
vt 0.200000 0.500000
vt 0.250000 0.500000
vt 0.300000 0.500000
vt 0.350000 0.500000
vt 0.400000 0.500000
vt 0.450000 0.500000
vt 0.500000 0.500000
vt 0.550000 0.500000
vt 0.600000 0.500000
vt 0.650000 0.500000
vt 0.700000 0.500000
vt 0.750000 0.500000
vt 0.800000 0.500000
vt 0.850000 0.500000
vt 0.900000 0.500000
vt 0.950000 0.500000
vt 1.000000 0.500000
vt 0.050000 0.700000
vt 0.000000 0.700000
vt 0.100000 0.700000
vt 0.150000 0.700000
vt 0.200000 0.700000
vt 0.250000 0.700000
vt 0.300000 0.700000
vt 0.350000 0.700000
vt 0.400000 0.700000
vt 0.450000 0.700000
vt 0.500000 0.700000
vt 0.550000 0.700000
vt 0.600000 0.700000
vt 0.650000 0.700000
vt 0.700000 0.700000
vt 0.750000 0.700000
vt 0.800000 0.700000
vt 0.850000 0.700000
vt 0.900000 0.700000
vt 0.950000 0.700000
vt 1.000000 0.700000
vt 0.025000 0.000000
vt 0.075000 0.000000
vt 0.125000 0.000000
vt 0.175000 0.000000
vt 0.225000 0.000000
vt 0.275000 0.000000
vt 0.325000 0.000000
vt 0.375000 0.000000
vt 0.425000 0.000000
vt 0.475000 0.000000
vt 0.525000 0.000000
vt 0.575000 0.000000
vt 0.625000 0.000000
vt 0.675000 0.000000
vt 0.725000 0.000000
vt 0.775000 0.000000
vt 0.825000 0.000000
vt 0.875000 0.000000
vt 0.925000 0.000000
vt 0.975000 0.000000
vt 0.025000 1.000000
vt 0.075000 1.000000
vt 0.125000 1.000000
vt 0.175000 1.000000
vt 0.225000 1.000000
vt 0.275000 1.000000
vt 0.325000 1.000000
vt 0.375000 1.000000
vt 0.425000 1.000000
vt 0.475000 1.000000
vt 0.525000 1.000000
vt 0.575000 1.000000
vt 0.625000 1.000000
vt 0.675000 1.000000
vt 0.725000 1.000000
vt 0.775000 1.000000
vt 0.825000 1.000000
vt 0.875000 1.000000
vt 0.925000 1.000000
vt 0.975000 1.000000
vt 0.648603 0.892034
vt 0.451716 0.992353
vt 0.500000 0.687500
vt 0.351397 0.795466
vt 0.626409 0.751908
vt 0.451716 0.695147
vt 0.591842 0.717341
vt 0.373591 0.935591
s 1
usemtl initialShadingGroup
f 1/1/1 2/2/2 22/3/3 21/4/4
f 2/2/2 3/5/5 23/6/6 22/3/3
f 3/5/5 4/7/7 24/8/8 23/6/6
f 4/7/7 5/9/9 25/10/10 24/8/8
f 5/9/9 6/11/11 26/12/12 25/10/10
f 6/11/11 7/13/13 27/14/14 26/12/12
f 7/13/13 8/15/15 28/16/16 27/14/14
f 8/15/15 9/17/17 29/18/18 28/16/16
f 9/17/17 10/19/19 30/20/20 29/18/18
f 10/19/19 11/21/21 31/22/22 30/20/20
f 11/21/21 12/23/23 32/24/24 31/22/22
f 12/23/23 13/25/25 33/26/26 32/24/24
f 13/25/25 14/27/27 34/28/28 33/26/26
f 14/27/27 15/29/29 35/30/30 34/28/28
f 15/29/29 16/31/31 36/32/32 35/30/30
f 16/31/31 17/33/33 37/34/34 36/32/32
f 17/33/33 18/35/35 38/36/36 37/34/34
f 18/35/35 19/37/37 39/38/38 38/36/36
f 19/37/37 20/39/39 40/40/40 39/38/38
f 20/39/39 1/41/1 21/42/4 40/40/40
f 21/4/4 22/3/3 42/43/41 41/44/42
f 22/3/3 23/6/6 43/45/43 42/43/41
f 23/6/6 24/8/8 44/46/44 43/45/43
f 24/8/8 25/10/10 45/47/45 44/46/44
f 25/10/10 26/12/12 46/48/46 45/47/45
f 26/12/12 27/14/14 47/49/47 46/48/46
f 27/14/14 28/16/16 48/50/48 47/49/47
f 28/16/16 29/18/18 49/51/49 48/50/48
f 29/18/18 30/20/20 50/52/50 49/51/49
f 30/20/20 31/22/22 51/53/51 50/52/50
f 31/22/22 32/24/24 52/54/52 51/53/51
f 32/24/24 33/26/26 53/55/53 52/54/52
f 33/26/26 34/28/28 54/56/54 53/55/53
f 34/28/28 35/30/30 55/57/55 54/56/54
f 35/30/30 36/32/32 56/58/56 55/57/55
f 36/32/32 37/34/34 57/59/57 56/58/56
f 37/34/34 38/36/36 58/60/58 57/59/57
f 38/36/36 39/38/38 59/61/59 58/60/58
f 39/38/38 40/40/40 60/62/60 59/61/59
f 40/40/40 21/42/4 41/63/42 60/62/60
f 41/44/42 42/43/41 62/64/61 61/65/62
f 42/43/41 43/45/43 63/66/63 62/64/61
f 43/45/43 44/46/44 64/67/64 63/66/63
f 44/46/44 45/47/45 65/68/65 64/67/64
f 45/47/45 46/48/46 66/69/66 65/68/65
f 46/48/46 47/49/47 67/70/67 66/69/66
f 47/49/47 48/50/48 68/71/68 67/70/67
f 48/50/48 49/51/49 69/72/69 68/71/68
f 49/51/49 50/52/50 70/73/70 69/72/69
f 50/52/50 51/53/51 71/74/71 70/73/70
f 51/53/51 52/54/52 72/75/72 71/74/71
f 52/54/52 53/55/53 73/76/73 72/75/72
f 53/55/53 54/56/54 74/77/74 73/76/73
f 54/56/54 55/57/55 75/78/75 74/77/74
f 55/57/55 56/58/56 76/79/76 75/78/75
f 56/58/56 57/59/57 77/80/77 76/79/76
f 57/59/57 58/60/58 78/81/78 77/80/77
f 58/60/58 59/61/59 79/82/79 78/81/78
f 59/61/59 60/62/60 80/83/80 79/82/79
f 60/62/60 41/63/42 61/84/62 80/83/80
f 2/2/2 1/1/1 81/85/81
f 3/5/5 2/2/2 81/86/81
f 4/7/7 3/5/5 81/87/81
f 5/9/9 4/7/7 81/88/81
f 6/11/11 5/9/9 81/89/81
f 7/13/13 6/11/11 81/90/81
f 8/15/15 7/13/13 81/91/81
f 9/17/17 8/15/15 81/92/81
f 10/19/19 9/17/17 81/93/81
f 11/21/21 10/19/19 81/94/81
f 12/23/23 11/21/21 81/95/81
f 13/25/25 12/23/23 81/96/81
f 14/27/27 13/25/25 81/97/81
f 15/29/29 14/27/27 81/98/81
f 16/31/31 15/29/29 81/99/81
f 17/33/33 16/31/31 81/100/81
f 18/35/35 17/33/33 81/101/81
f 19/37/37 18/35/35 81/102/81
f 20/39/39 19/37/37 81/103/81
f 1/41/1 20/39/39 81/104/81
f 61/65/62 62/64/61 82/105/82
f 62/64/61 63/66/63 82/106/82
f 63/66/63 64/67/64 82/107/82
f 64/67/64 65/68/65 82/108/82
f 65/68/65 66/69/66 82/109/82
f 66/69/66 67/70/67 82/110/82
f 67/70/67 68/71/68 82/111/82
f 68/71/68 69/72/69 82/112/82
f 69/72/69 70/73/70 82/113/82
f 70/73/70 71/74/71 82/114/82
f 71/74/71 72/75/72 82/115/82
f 72/75/72 73/76/73 82/116/82
f 73/76/73 74/77/74 82/117/82
f 74/77/74 75/78/75 82/118/82
f 75/78/75 76/79/76 82/119/82
f 76/79/76 77/80/77 82/120/82
f 77/80/77 78/81/78 82/121/82
f 78/81/78 79/82/79 82/122/82
f 79/82/79 80/83/80 82/123/82
f 80/83/80 61/84/62 82/124/82
f 87/125/83 83/126/83 85/127/83
f 83/126/83 84/128/83 85/127/83
f 86/129/83 87/125/83 85/127/83
f 92/125/84 88/126/84 89/128/84
f 90/130/84 91/131/84 89/128/84
f 91/131/84 92/125/84 89/128/84
f 93/132/85 94/128/85 97/125/85
f 94/128/85 95/127/85 97/125/85
f 95/127/85 96/129/85 97/125/85
