# Blender 4.1.1
# www.blender.org
mtllib spire.mtl
o ColorSwitcher
v -3.751783 -1.522072 1.916810
v -3.751783 -1.608216 1.872917
v -3.751783 -1.676580 1.804553
v -3.751783 -1.720473 1.718408
v -3.751783 -1.735597 1.622917
v -3.751783 -1.720473 1.527426
v -3.751783 -1.676580 1.441281
v -3.751783 -1.608216 1.372917
v -3.751783 -1.522072 1.329024
v -3.751783 -1.426580 1.313900
v -3.751783 -1.331089 1.329024
v -3.751783 -1.244945 1.372917
v -3.751783 -1.176580 1.441281
v -3.751783 -1.132688 1.527426
v -3.751783 -1.117563 1.622917
v -3.751783 -1.132688 1.718408
v -3.751783 -1.176580 1.804553
v -3.751783 -1.244945 1.872917
v -3.751783 -1.331089 1.916810
v -3.751783 -1.426580 1.931934
v -3.388512 -1.676580 2.392339
v -3.388512 -1.902109 2.277426
v -3.388512 -2.081089 2.098446
v -3.388512 -2.196002 1.872917
v -3.388512 -2.235598 1.622917
v -3.388512 -2.196002 1.372917
v -3.388512 -2.081089 1.147389
v -3.388512 -1.902109 0.968408
v -3.388512 -1.676580 0.853496
v -3.388512 -1.426580 0.813900
v -3.388512 -1.176580 0.853496
v -3.388512 -0.951052 0.968408
v -3.388512 -0.772072 1.147389
v -3.393242 -0.650982 1.374925
v -3.402981 -0.598423 1.629217
v -3.405026 -0.629785 1.883730
v -3.396367 -0.754206 2.106788
v -3.388826 -0.948806 2.278762
v -3.388512 -1.176580 2.392338
v -3.388512 -1.426580 2.431934
v -2.800321 -1.735818 2.574462
v -2.799211 -2.015460 2.433396
v -2.795795 -2.241152 2.212895
v -2.792377 -2.387394 1.935107
v -2.796560 -2.431450 1.624501
v -2.800727 -2.377637 1.313900
v -2.800727 -2.235598 1.035132
v -2.800727 -2.014366 0.813900
v -2.800727 -1.735597 0.671860
v -2.800727 -1.426580 0.622917
v -2.800727 -1.117563 0.671860
v -2.800727 -0.838795 0.813900
v -2.800727 -0.617563 1.035132
v -2.800727 -0.475524 1.313900
v -2.802788 -0.421631 1.625271
v -2.803151 -0.444736 1.953873
v -2.800735 -0.550303 2.275694
v -2.800787 -0.770465 2.524132
v -2.800811 -1.082602 2.639457
v -2.800762 -1.419482 2.641128
v -2.183861 -1.696319 2.421285
v -2.170061 -1.933677 2.317795
v -2.172235 -2.116306 2.130554
v -2.186995 -2.222944 1.887655
v -2.201735 -2.248581 1.627346
v -2.211134 -2.198115 1.373604
v -2.212942 -2.081089 1.147389
v -2.212942 -1.902109 0.968408
v -2.212942 -1.676580 0.853496
v -2.212942 -1.426580 0.813900
v -2.212942 -1.176580 0.853496
v -2.212942 -0.951052 0.968408
v -2.212942 -0.772072 1.147389
v -2.212942 -0.657159 1.372917
v -2.212942 -0.617563 1.622917
v -2.212942 -0.657159 1.872917
v -2.212943 -0.768685 2.102871
v -2.212965 -0.939529 2.298031
v -2.212798 -1.167559 2.413092
v -2.204246 -1.430089 2.446266
v -3.800727 -1.426580 1.622917
v -1.800727 -1.426580 1.622917
v -2.415804 -1.337596 1.312569
v -2.697130 -1.123676 1.316207
v -2.674313 -1.022409 1.591056
v -2.500884 -1.099763 1.715282
v -2.343456 -1.248135 1.646757
v 0.462700 2.475872 -0.331454
v 0.181375 2.689793 -0.327815
v 0.204192 2.791059 -0.052967
v 0.377621 2.713706 0.071259
v 0.535049 2.565334 0.002735
vn -0.8372 -0.1690 0.5202
vn -0.8372 -0.3215 0.4425
vn -0.5107 -0.5040 0.6965
vn -0.5122 -0.2722 0.8146
vn -0.8372 -0.4425 0.3215
vn -0.5124 -0.6931 0.5070
vn -0.8372 -0.5202 0.1690
vn -0.5137 -0.8160 0.2649
vn -0.8372 -0.5470 -0.0000
vn -0.5120 -0.8590 -0.0034
vn -0.8372 -0.5202 -0.1690
vn -0.5100 -0.8176 -0.2672
vn -0.8372 -0.4425 -0.3215
vn -0.5095 -0.6961 -0.5058
vn -0.8372 -0.3215 -0.4425
vn -0.5095 -0.5058 -0.6961
vn -0.8372 -0.1690 -0.5202
vn -0.5095 -0.2659 -0.8184
vn -0.8372 -0.0000 -0.5470
vn -0.5095 -0.0000 -0.8605
vn -0.8372 0.1690 -0.5202
vn -0.5095 0.2659 -0.8184
vn -0.8372 0.3215 -0.4425
vn -0.5095 0.5058 -0.6961
vn -0.8375 0.4388 -0.3255
vn -0.5088 0.6923 -0.5117
vn -0.8409 0.5092 -0.1832
vn -0.5091 0.8103 -0.2901
vn -0.8477 0.5302 -0.0165
vn -0.5157 0.8558 -0.0403
vn -0.8508 0.4981 0.1674
vn -0.5325 0.8147 0.2297
vn -0.8454 0.4186 0.3318
vn -0.5609 0.6711 0.4848
vn -0.8387 0.3088 0.4486
vn -0.5748 0.4571 0.6787
vn -0.8372 0.1677 0.5205
vn -0.5552 0.2163 0.8031
vn -0.8372 -0.0000 0.5470
vn -0.5261 -0.0307 0.8499
vn -0.0423 -0.5785 0.8146
vn -0.0304 -0.3033 0.9524
vn -0.0386 -0.8108 0.5841
vn -0.0227 -0.9562 0.2918
vn -0.0116 -0.9997 -0.0222
vn -0.0047 -0.9478 -0.3189
vn -0.0004 -0.8085 -0.5885
vn -0.0000 -0.5878 -0.8090
vn -0.0000 -0.3090 -0.9511
vn -0.0000 -0.0000 -1.0000
vn -0.0000 0.3090 -0.9511
vn -0.0000 0.5878 -0.8090
vn 0.0012 0.8075 -0.5899
vn 0.0072 0.9469 -0.3214
vn 0.0153 0.9992 -0.0382
vn 0.0182 0.9691 0.2461
vn 0.0082 0.8379 0.5457
vn -0.0077 0.5738 0.8189
vn -0.0146 0.2375 0.9713
vn -0.0180 -0.0471 0.9987
vn 0.5496 -0.4712 0.6898
vn 0.5538 -0.2029 0.8075
vn 0.5535 -0.6891 0.4678
vn 0.5574 -0.8047 0.2045
vn 0.5598 -0.8271 -0.0510
vn 0.5608 -0.7797 -0.2785
vn 0.5621 -0.6673 -0.4886
vn 0.5625 -0.4860 -0.6689
vn 0.5625 -0.2555 -0.7863
vn 0.5625 -0.0000 -0.8268
vn 0.5625 0.2555 -0.7863
vn 0.5625 0.4860 -0.6689
vn 0.5625 0.6689 -0.4860
vn 0.5630 0.7854 -0.2572
vn 0.5684 0.8226 -0.0155
vn 0.5879 0.7814 0.2090
vn 0.6141 0.6689 0.4189
vn 0.6153 0.4707 0.6323
vn 0.5935 0.2084 0.7774
vn 0.5714 -0.0000 0.8207
vn -1.0000 -0.0000 -0.0000
vn 0.9997 0.0148 -0.0180
vn 0.8018 -0.4234 0.4217
vn 0.4181 -0.6070 -0.6759
vn 0.8017 -0.4235 0.4217
vn -0.6335 0.1510 -0.7589
vn -0.6938 0.6538 0.3020
vn -0.6937 0.6538 0.3020
vn 0.0777 0.3447 0.9355
vn -0.5697 -0.7547 0.3254
vn 0.5697 0.7547 -0.3254
vt 0.000000 0.100000
vt 0.050000 0.100000
vt 0.050000 0.300000
vt 0.000000 0.300000
vt 0.100000 0.100000
vt 0.100000 0.300000
vt 0.150000 0.100000
vt 0.150000 0.300000
vt 0.200000 0.100000
vt 0.200000 0.300000
vt 0.250000 0.100000
vt 0.250000 0.300000
vt 0.300000 0.100000
vt 0.300000 0.300000
vt 0.350000 0.100000
vt 0.350000 0.300000
vt 0.400000 0.100000
vt 0.400000 0.300000
vt 0.450000 0.100000
vt 0.450000 0.300000
vt 0.500000 0.100000
vt 0.500000 0.300000
vt 0.550000 0.100000
vt 0.550000 0.300000
vt 0.600000 0.100000
vt 0.600000 0.300000
vt 0.650000 0.100000
vt 0.650000 0.300000
vt 0.700000 0.100000
vt 0.700000 0.300000
vt 0.750000 0.100000
vt 0.750000 0.300000
vt 0.800000 0.100000
vt 0.800000 0.300000
vt 0.850000 0.100000
vt 0.850000 0.300000
vt 0.900000 0.100000
vt 0.900000 0.300000
vt 0.950000 0.100000
vt 0.950000 0.300000
vt 1.000000 0.100000
vt 1.000000 0.300000
vt 0.050000 0.500000
vt 0.000000 0.500000
vt 0.100000 0.500000
vt 0.150000 0.500000
vt 0.200000 0.500000
vt 0.250000 0.500000
vt 0.300000 0.500000
vt 0.350000 0.500000
vt 0.400000 0.500000
vt 0.450000 0.500000
vt 0.500000 0.500000
vt 0.550000 0.500000
vt 0.600000 0.500000
vt 0.650000 0.500000
vt 0.700000 0.500000
vt 0.750000 0.500000
vt 0.800000 0.500000
vt 0.850000 0.500000
vt 0.900000 0.500000
vt 0.950000 0.500000
vt 1.000000 0.500000
vt 0.050000 0.700000
vt 0.000000 0.700000
vt 0.100000 0.700000
vt 0.150000 0.700000
vt 0.200000 0.700000
vt 0.250000 0.700000
vt 0.300000 0.700000
vt 0.350000 0.700000
vt 0.400000 0.700000
vt 0.450000 0.700000
vt 0.500000 0.700000
vt 0.550000 0.700000
vt 0.600000 0.700000
vt 0.650000 0.700000
vt 0.700000 0.700000
vt 0.750000 0.700000
vt 0.800000 0.700000
vt 0.850000 0.700000
vt 0.900000 0.700000
vt 0.950000 0.700000
vt 1.000000 0.700000
vt 0.025000 0.000000
vt 0.075000 0.000000
vt 0.125000 0.000000
vt 0.175000 0.000000
vt 0.225000 0.000000
vt 0.275000 0.000000
vt 0.325000 0.000000
vt 0.375000 0.000000
vt 0.425000 0.000000
vt 0.475000 0.000000
vt 0.525000 0.000000
vt 0.575000 0.000000
vt 0.625000 0.000000
vt 0.675000 0.000000
vt 0.725000 0.000000
vt 0.775000 0.000000
vt 0.825000 0.000000
vt 0.875000 0.000000
vt 0.925000 0.000000
vt 0.975000 0.000000
vt 0.025000 1.000000
vt 0.075000 1.000000
vt 0.125000 1.000000
vt 0.175000 1.000000
vt 0.225000 1.000000
vt 0.275000 1.000000
vt 0.325000 1.000000
vt 0.375000 1.000000
vt 0.425000 1.000000
vt 0.475000 1.000000
vt 0.525000 1.000000
vt 0.575000 1.000000
vt 0.625000 1.000000
vt 0.675000 1.000000
vt 0.725000 1.000000
vt 0.775000 1.000000
vt 0.825000 1.000000
vt 0.875000 1.000000
vt 0.925000 1.000000
vt 0.975000 1.000000
vt 0.375000 0.312500
vt 0.437500 0.312500
vt 0.437500 0.687500
vt 0.375000 0.687500
vt 0.500000 0.312500
vt 0.500000 0.687500
vt 0.550000 0.312500
vt 0.550000 0.687500
vt 0.587500 0.312500
vt 0.587500 0.687500
vt 0.625000 0.312500
vt 0.625000 0.687500
vt 0.451716 0.007647
vt 0.648603 0.107966
vt 0.351397 0.204534
vt 0.626409 0.248091
vt 0.648603 0.892034
vt 0.451716 0.992353
vt 0.351397 0.795466
vt 0.626409 0.751908
s 1
usemtl initialShadingGroup
f 1/1/1 2/2/2 22/3/3 21/4/4
f 2/2/2 3/5/5 23/6/6 22/3/3
f 3/5/5 4/7/7 24/8/8 23/6/6
f 4/7/7 5/9/9 25/10/10 24/8/8
f 5/9/9 6/11/11 26/12/12 25/10/10
f 6/11/11 7/13/13 27/14/14 26/12/12
f 7/13/13 8/15/15 28/16/16 27/14/14
f 8/15/15 9/17/17 29/18/18 28/16/16
f 9/17/17 10/19/19 30/20/20 29/18/18
f 10/19/19 11/21/21 31/22/22 30/20/20
f 11/21/21 12/23/23 32/24/24 31/22/22
f 12/23/23 13/25/25 33/26/26 32/24/24
f 13/25/25 14/27/27 34/28/28 33/26/26
f 14/27/27 15/29/29 35/30/30 34/28/28
f 15/29/29 16/31/31 36/32/32 35/30/30
f 16/31/31 17/33/33 37/34/34 36/32/32
f 17/33/33 18/35/35 38/36/36 37/34/34
f 18/35/35 19/37/37 39/38/38 38/36/36
f 19/37/37 20/39/39 40/40/40 39/38/38
f 20/39/39 1/41/1 21/42/4 40/40/40
f 21/4/4 22/3/3 42/43/41 41/44/42
f 22/3/3 23/6/6 43/45/43 42/43/41
f 23/6/6 24/8/8 44/46/44 43/45/43
f 24/8/8 25/10/10 45/47/45 44/46/44
f 25/10/10 26/12/12 46/48/46 45/47/45
f 26/12/12 27/14/14 47/49/47 46/48/46
f 27/14/14 28/16/16 48/50/48 47/49/47
f 28/16/16 29/18/18 49/51/49 48/50/48
f 29/18/18 30/20/20 50/52/50 49/51/49
f 30/20/20 31/22/22 51/53/51 50/52/50
f 31/22/22 32/24/24 52/54/52 51/53/51
f 32/24/24 33/26/26 53/55/53 52/54/52
f 33/26/26 34/28/28 54/56/54 53/55/53
f 34/28/28 35/30/30 55/57/55 54/56/54
f 35/30/30 36/32/32 56/58/56 55/57/55
f 36/32/32 37/34/34 57/59/57 56/58/56
f 37/34/34 38/36/36 58/60/58 57/59/57
f 38/36/36 39/38/38 59/61/59 58/60/58
f 39/38/38 40/40/40 60/62/60 59/61/59
f 40/40/40 21/42/4 41/63/42 60/62/60
f 41/44/42 42/43/41 62/64/61 61/65/62
f 42/43/41 43/45/43 63/66/63 62/64/61
f 43/45/43 44/46/44 64/67/64 63/66/63
f 44/46/44 45/47/45 65/68/65 64/67/64
f 45/47/45 46/48/46 66/69/66 65/68/65
f 46/48/46 47/49/47 67/70/67 66/69/66
f 47/49/47 48/50/48 68/71/68 67/70/67
f 48/50/48 49/51/49 69/72/69 68/71/68
f 49/51/49 50/52/50 70/73/70 69/72/69
f 50/52/50 51/53/51 71/74/71 70/73/70
f 51/53/51 52/54/52 72/75/72 71/74/71
f 52/54/52 53/55/53 73/76/73 72/75/72
f 53/55/53 54/56/54 74/77/74 73/76/73
f 54/56/54 55/57/55 75/78/75 74/77/74
f 55/57/55 56/58/56 76/79/76 75/78/75
f 56/58/56 57/59/57 77/80/77 76/79/76
f 57/59/57 58/60/58 78/81/78 77/80/77
f 58/60/58 59/61/59 79/82/79 78/81/78
f 59/61/59 60/62/60 80/83/80 79/82/79
f 60/62/60 41/63/42 61/84/62 80/83/80
f 2/2/2 1/1/1 81/85/81
f 3/5/5 2/2/2 81/86/81
f 4/7/7 3/5/5 81/87/81
f 5/9/9 4/7/7 81/88/81
f 6/11/11 5/9/9 81/89/81
f 7/13/13 6/11/11 81/90/81
f 8/15/15 7/13/13 81/91/81
f 9/17/17 8/15/15 81/92/81
f 10/19/19 9/17/17 81/93/81
f 11/21/21 10/19/19 81/94/81
f 12/23/23 11/21/21 81/95/81
f 13/25/25 12/23/23 81/96/81
f 14/27/27 13/25/25 81/97/81
f 15/29/29 14/27/27 81/98/81
f 16/31/31 15/29/29 81/99/81
f 17/33/33 16/31/31 81/100/81
f 18/35/35 17/33/33 81/101/81
f 19/37/37 18/35/35 81/102/81
f 20/39/39 19/37/37 81/103/81
f 1/41/1 20/39/39 81/104/81
f 61/65/62 62/64/61 82/105/82
f 62/64/61 63/66/63 82/106/82
f 63/66/63 64/67/64 82/107/82
f 64/67/64 65/68/65 82/108/82
f 65/68/65 66/69/66 82/109/82
f 66/69/66 67/70/67 82/110/82
f 67/70/67 68/71/68 82/111/82
f 68/71/68 69/72/69 82/112/82
f 69/72/69 70/73/70 82/113/82
f 70/73/70 71/74/71 82/114/82
f 71/74/71 72/75/72 82/115/82
f 72/75/72 73/76/73 82/116/82
f 73/76/73 74/77/74 82/117/82
f 74/77/74 75/78/75 82/118/82
f 75/78/75 76/79/76 82/119/82
f 76/79/76 77/80/77 82/120/82
f 77/80/77 78/81/78 82/121/82
f 78/81/78 79/82/79 82/122/82
f 79/82/79 80/83/80 82/123/82
f 80/83/80 61/84/62 82/124/82
f 87/125/83 83/126/84 88/127/84 92/128/85
f 83/126/84 84/129/86 89/130/86 88/127/84
f 84/129/86 85/131/87 90/132/88 89/130/86
f 85/131/87 86/133/89 91/134/89 90/132/88
f 86/133/89 87/135/83 92/136/85 91/134/89
f 83/137/90 87/138/90 84/139/90
f 86/140/90 85/129/90 84/139/90
f 87/138/90 86/140/90 84/139/90
f 92/141/91 88/142/91 90/130/91
f 88/142/91 89/143/91 90/130/91
f 91/144/91 92/141/91 90/130/91
